<?xml version="1.0" encoding="UTF-8"?>
<svg version="1.1" xmlns="http://www.w3.org/2000/svg" width="1024" height="1024">
<path d="M0 0 C6.9634621 5.75777432 13.44612996 11.93748303 19.74951172 18.40307617 C22.33732536 21.03894536 24.99116248 23.5237378 27.80203247 25.92141724 C32.68616903 30.17888448 37.24203037 34.73401681 41.80810547 39.32763672 C43.22712709 40.7488996 44.64614883 42.17016236 46.06517529 43.59142041 C47.57416196 45.10375602 49.08189319 46.61733285 50.5892601 48.13128281 C53.7381287 51.29376555 56.89089057 54.45234807 60.04421997 57.61038208 C66.72777586 64.30498924 73.40706131 71.00384963 80.0859375 77.703125 C87.31850412 84.95773217 94.55181769 92.21158571 101.78999245 99.46059811 C104.92610484 102.60169645 108.05976266 105.74521721 111.191571 108.89060664 C112.6669015 110.37158843 114.1433618 111.85143242 115.62034607 113.33076477 C117.42285365 115.13615206 119.22354956 116.94335056 121.0221405 118.75263977 C122.20793953 119.93854454 122.20793953 119.93854454 123.41769409 121.14840698 C124.45018689 122.1842307 124.45018689 122.1842307 125.50353813 123.24098015 C127.13639103 124.90810692 127.13639103 124.90810692 129.2109375 125.828125 C129.2109375 126.488125 129.2109375 127.148125 129.2109375 127.828125 C129.8709375 127.828125 130.5309375 127.828125 131.2109375 127.828125 C131.2109375 128.488125 131.2109375 129.148125 131.2109375 129.828125 C131.8709375 129.828125 132.5309375 129.828125 133.2109375 129.828125 C133.2109375 130.488125 133.2109375 131.148125 133.2109375 131.828125 C134.0771875 132.199375 134.0771875 132.199375 134.9609375 132.578125 C137.54033729 134.01112488 139.27215342 135.61237176 141.2109375 137.828125 C141.2109375 138.488125 141.2109375 139.148125 141.2109375 139.828125 C142.5309375 140.488125 143.8509375 141.148125 145.2109375 141.828125 C145.2109375 142.488125 145.2109375 143.148125 145.2109375 143.828125 C146.5309375 144.488125 147.8509375 145.148125 149.2109375 145.828125 C149.2109375 146.488125 149.2109375 147.148125 149.2109375 147.828125 C149.78972656 148.06789063 150.36851562 148.30765625 150.96484375 148.5546875 C153.65254801 150.07849896 155.16623081 151.84017762 157.1484375 154.203125 C159.96809753 157.47351136 162.73248254 160.24412989 166.2109375 162.828125 C168.0234375 164.453125 168.0234375 164.453125 169.2109375 165.828125 C169.2109375 166.488125 169.2109375 167.148125 169.2109375 167.828125 C170.0771875 168.199375 170.0771875 168.199375 170.9609375 168.578125 C173.54033729 170.01112488 175.27215342 171.61237176 177.2109375 173.828125 C177.2109375 174.488125 177.2109375 175.148125 177.2109375 175.828125 C177.8709375 175.828125 178.5309375 175.828125 179.2109375 175.828125 C179.2109375 176.488125 179.2109375 177.148125 179.2109375 177.828125 C180.04625 178.1684375 180.04625 178.1684375 180.8984375 178.515625 C183.86948935 180.20189767 185.85615875 182.358479 188.2109375 184.828125 C189.1390625 185.715 190.0671875 186.601875 191.0234375 187.515625 C193.2109375 189.828125 193.2109375 189.828125 193.2109375 191.828125 C193.8709375 191.828125 194.5309375 191.828125 195.2109375 191.828125 C196.54989382 193.49027768 197.88223892 195.15776107 199.2109375 196.828125 C200.86096578 198.18199436 202.5283762 199.51490642 204.2109375 200.828125 C207.01017493 203.48381179 209.56692651 206.23539416 212.0234375 209.203125 C214.09014913 211.64469654 216.21110621 213.76182077 218.66015625 215.81640625 C223.88425548 220.33376848 228.76088885 225.19200556 233.64111328 230.07299805 C235.2306284 231.66028834 236.82803407 233.23936053 238.42578125 234.81835938 C239.43798676 235.82763707 240.44972361 236.83738504 241.4609375 237.84765625 C242.37359375 238.75620361 243.28625 239.66475098 244.2265625 240.60083008 C246.2109375 242.828125 246.2109375 242.828125 246.2109375 244.828125 C246.80422852 245.09689453 247.39751953 245.36566406 248.00878906 245.64257812 C250.21633783 246.83103232 251.67636632 248.03554889 253.4453125 249.796875 C254.01894531 250.36792969 254.59257813 250.93898438 255.18359375 251.52734375 C255.77011719 252.12160156 256.35664062 252.71585937 256.9609375 253.328125 C257.56292969 253.92238281 258.16492188 254.51664062 258.78515625 255.12890625 C259.63787109 255.98548828 259.63787109 255.98548828 260.5078125 256.859375 C261.02698242 257.38080078 261.54615234 257.90222656 262.08105469 258.43945312 C263.2109375 259.828125 263.2109375 259.828125 263.2109375 261.828125 C264.2009375 262.158125 265.1909375 262.488125 266.2109375 262.828125 C267.6550293 264.30444336 267.6550293 264.30444336 269.22265625 266.23046875 C272.11214079 269.63855928 275.14349282 272.78800045 278.35546875 275.89453125 C298.1053046 295.00777784 312.7934223 313.68411019 313.6484375 342.640625 C313.50018942 364.39338342 303.98591053 384.18845889 289.2109375 399.828125 C288.4478125 400.653125 287.6846875 401.478125 286.8984375 402.328125 C285.2109375 403.828125 285.2109375 403.828125 283.2109375 403.828125 C282.9840625 404.405625 282.7571875 404.983125 282.5234375 405.578125 C280.88177643 408.39240113 278.77534697 409.85550233 276.2109375 411.828125 C275.8809375 412.488125 275.5509375 413.148125 275.2109375 413.828125 C274.5509375 413.828125 273.8909375 413.828125 273.2109375 413.828125 C273.2109375 414.488125 273.2109375 415.148125 273.2109375 415.828125 C270.87746101 418.36161376 268.50426868 420.60248563 265.7734375 422.703125 C263.62085727 424.48819153 262.04166027 426.13362723 260.2734375 428.265625 C258.3504991 430.58099981 256.62055407 432.31801763 254.2734375 434.265625 C251.79002505 436.34358235 249.90659073 438.25684306 247.8359375 440.703125 C244.82679376 444.23820315 241.58387952 447.23949362 238.0546875 450.24609375 C233.84243885 453.86041728 230.25869673 457.91469448 226.6796875 462.1328125 C223.76412016 465.49812161 220.66504895 468.45915945 217.2109375 471.265625 C214.13858908 473.88992261 211.78580878 476.72507499 209.2109375 479.828125 C208.4271875 480.446875 207.6434375 481.065625 206.8359375 481.703125 C203.70884669 484.23457946 201.31218751 487.11973253 198.76171875 490.21875 C198.24996094 490.74984375 197.73820313 491.2809375 197.2109375 491.828125 C196.5509375 491.828125 195.8909375 491.828125 195.2109375 491.828125 C194.94925781 492.42882812 194.68757812 493.02953125 194.41796875 493.6484375 C193.13670951 495.96216777 191.96286668 497.0827083 189.8984375 498.703125 C187.43626096 500.71390251 185.37306943 502.71132757 183.3984375 505.203125 C182.6765625 506.069375 181.9546875 506.935625 181.2109375 507.828125 C180.5509375 507.828125 179.8909375 507.828125 179.2109375 507.828125 C179.2109375 508.488125 179.2109375 509.148125 179.2109375 509.828125 C177.54427083 511.16145833 175.87760417 512.49479167 174.2109375 513.828125 C172.99801055 515.29640499 171.78600247 516.76566193 170.59765625 518.25390625 C168.56466153 520.56178477 166.21108688 522.42439493 163.84765625 524.3828125 C161.66436555 526.31077804 159.9646811 528.51067809 158.2109375 530.828125 C156.5859375 532.640625 156.5859375 532.640625 155.2109375 533.828125 C154.5509375 533.828125 153.8909375 533.828125 153.2109375 533.828125 C153.2109375 534.488125 153.2109375 535.148125 153.2109375 535.828125 C151.56090922 537.18199436 149.8934988 538.51490642 148.2109375 539.828125 C147.8809375 540.488125 147.5509375 541.148125 147.2109375 541.828125 C146.5509375 541.828125 145.8909375 541.828125 145.2109375 541.828125 C145.2109375 542.488125 145.2109375 543.148125 145.2109375 543.828125 C143.8359375 545.453125 143.8359375 545.453125 142.2109375 546.828125 C141.5509375 546.828125 140.8909375 546.828125 140.2109375 546.828125 C139.9840625 547.385 139.7571875 547.941875 139.5234375 548.515625 C137.24813703 552.52448774 133.89819723 555.27532913 130.3359375 558.140625 C127.02995904 560.81281485 124.41638599 563.97644114 121.7265625 567.25390625 C121.22640625 567.77339844 120.72625 568.29289063 120.2109375 568.828125 C119.5509375 568.828125 118.8909375 568.828125 118.2109375 568.828125 C117.97761719 569.40046875 117.74429688 569.9728125 117.50390625 570.5625 C115.90312911 573.36748714 113.98027099 574.98624227 111.5234375 577.078125 C107.646305 580.47480592 104.17151268 583.94496514 100.87890625 587.90625 C98.77058617 590.33550873 96.49032248 592.55834647 94.2109375 594.828125 C92.46655607 596.59417162 90.72310681 598.36113934 88.98046875 600.12890625 C87.50247593 601.62161199 86.02354386 603.11338002 84.54418945 604.60473633 C83.52321868 605.63586927 82.50403454 606.66877406 81.48657227 607.70336914 C80.01001384 609.20405975 78.52719891 610.69830785 77.04296875 612.19140625 C76.16358643 613.08126221 75.2842041 613.97111816 74.37817383 614.88793945 C72.2109375 616.828125 72.2109375 616.828125 70.2109375 616.828125 C70.00188278 617.36086029 69.79282806 617.89359558 69.57743835 618.44247437 C67.66759926 621.77669024 65.04208545 624.30021794 62.34692383 626.99853516 C61.74649765 627.60728485 61.14607147 628.21603455 60.52745056 628.8432312 C58.53808331 630.8567095 56.54112644 632.86243468 54.54296875 634.8671875 C53.14679312 636.27233782 51.75069137 637.67756155 50.35466003 639.08285522 C47.42026547 642.0337518 44.48149271 644.98021328 41.5402832 647.92431641 C37.80561156 651.66433294 34.08729946 655.42015853 30.37297535 659.18036842 C27.4892867 662.09409773 24.59411373 664.99621546 21.69586754 667.89545822 C20.3224913 669.27299355 18.95316283 670.65457858 17.58829689 672.04054642 C-1.08837602 690.98250307 -20.82805742 702.96941594 -48.1015625 703.265625 C-71.60761635 703.1073415 -89.22831803 695.11386471 -106.43896484 679.34863281 C-107.95715648 677.63881409 -108.77452305 675.86571603 -109.7890625 673.828125 C-110.3871875 673.539375 -110.9853125 673.250625 -111.6015625 672.953125 C-114.26675247 671.58245587 -115.66640392 669.66060357 -117.50390625 667.33984375 C-119.34569969 665.17335724 -121.54673051 663.56593229 -123.7890625 661.828125 C-125.47669101 660.1826872 -127.1430974 658.51523923 -128.7890625 656.828125 C-129.7171875 655.94125 -130.6453125 655.054375 -131.6015625 654.140625 C-133.7890625 651.828125 -133.7890625 651.828125 -133.7890625 649.828125 C-134.33691406 649.60769531 -134.88476562 649.38726563 -135.44921875 649.16015625 C-138.52455244 647.40942371 -140.79064971 645.03865434 -143.2265625 642.515625 C-143.69126953 642.04189453 -144.15597656 641.56816406 -144.63476562 641.08007812 C-146.02229008 639.66546114 -147.40569757 638.24680988 -148.7890625 636.828125 C-151.11115722 634.49212552 -153.43865388 632.1663337 -155.80859375 629.87890625 C-156.69611328 629.01845703 -156.69611328 629.01845703 -157.6015625 628.140625 C-158.20613281 627.55925781 -158.81070313 626.97789062 -159.43359375 626.37890625 C-160.7890625 624.828125 -160.7890625 624.828125 -160.7890625 622.828125 C-161.3459375 622.60125 -161.9028125 622.374375 -162.4765625 622.140625 C-166.75218127 619.71392246 -169.92823069 616.39562127 -171.7890625 611.828125 C-172.4490625 611.828125 -173.1090625 611.828125 -173.7890625 611.828125 C-173.7890625 611.168125 -173.7890625 610.508125 -173.7890625 609.828125 C-174.3665625 609.580625 -174.9440625 609.333125 -175.5390625 609.078125 C-178.11846229 607.64512512 -179.85027842 606.04387824 -181.7890625 603.828125 C-181.7890625 603.168125 -181.7890625 602.508125 -181.7890625 601.828125 C-182.3665625 601.580625 -182.9440625 601.333125 -183.5390625 601.078125 C-186.11846229 599.64512512 -187.85027842 598.04387824 -189.7890625 595.828125 C-189.7890625 595.168125 -189.7890625 594.508125 -189.7890625 593.828125 C-190.3665625 593.580625 -190.9440625 593.333125 -191.5390625 593.078125 C-194.11846229 591.64512512 -195.85027842 590.04387824 -197.7890625 587.828125 C-197.7890625 587.168125 -197.7890625 586.508125 -197.7890625 585.828125 C-198.3665625 585.580625 -198.9440625 585.333125 -199.5390625 585.078125 C-202.11846229 583.64512512 -203.85027842 582.04387824 -205.7890625 579.828125 C-205.7890625 579.168125 -205.7890625 578.508125 -205.7890625 577.828125 C-206.38847656 577.56773437 -206.98789062 577.30734375 -207.60546875 577.0390625 C-209.93844624 575.74528249 -211.08684031 574.53343736 -212.7265625 572.453125 C-215.17573308 569.47473665 -217.72382964 567.18599643 -220.7890625 564.828125 C-223.26459935 562.47334605 -225.52819758 560.169948 -227.6015625 557.453125 C-230.06471371 554.49734355 -232.78527772 552.15106366 -235.703125 549.65625 C-238.88742379 546.86551623 -241.82943515 543.85303825 -244.7890625 540.828125 C-245.6759375 539.94125 -246.5628125 539.054375 -247.4765625 538.140625 C-248.2396875 537.3775 -249.0028125 536.614375 -249.7890625 535.828125 C-250.5521875 535.10625 -251.3153125 534.384375 -252.1015625 533.640625 C-253.7890625 531.828125 -253.7890625 531.828125 -253.7890625 529.828125 C-254.37506729 529.56743729 -254.96107208 529.30674957 -255.56483459 529.03816223 C-257.93175575 527.7504962 -259.48216759 526.37614558 -261.37670898 524.4675293 C-262.40313759 523.4408741 -262.40313759 523.4408741 -263.45030212 522.39347839 C-264.17955399 521.65390396 -264.90880585 520.91432953 -265.66015625 520.15234375 C-266.41949966 519.39017044 -267.17884308 518.62799713 -267.9611969 517.84272766 C-270.38772228 515.40501676 -272.80721459 512.96045744 -275.2265625 510.515625 C-276.85175197 508.8804005 -278.47739795 507.24562958 -280.10351562 505.61132812 C-283.74637903 501.9485935 -287.3848602 498.28157434 -291.01876831 494.60995483 C-292.55924772 493.0594373 -294.10987703 491.52013388 -295.66430664 489.98364258 C-297.7890625 487.828125 -297.7890625 487.828125 -299.7890625 485.265625 C-301.71718334 482.74389513 -301.71718334 482.74389513 -304.2890625 480.828125 C-306.91805793 478.72492865 -308.69225885 476.44912957 -310.7890625 473.828125 C-311.5521875 473.23 -312.3153125 472.631875 -313.1015625 472.015625 C-315.35045705 470.18512944 -316.99291188 468.51609963 -318.8515625 466.328125 C-323.35367456 461.0542223 -328.29522874 456.23337001 -333.23095703 451.37036133 C-334.51519736 450.09920085 -335.79388299 448.82243105 -337.07104492 447.54415894 C-339.65195427 444.96513317 -342.24181302 442.39556596 -344.83544922 439.8293457 C-349.69505506 435.01881695 -354.54698245 430.20062117 -359.39460564 425.37801838 C-362.31688767 422.47136875 -365.24190442 419.56758624 -368.17333984 416.67016602 C-371.02578605 413.8505875 -373.87059505 411.02349881 -376.71051407 408.19130516 C-377.78499636 407.12230767 -378.86208714 406.05592458 -379.94198227 404.9923954 C-397.1322579 388.05241949 -407.89738627 368.45983191 -408.1015625 343.890625 C-408.11787956 325.21847062 -401.93709923 309.09149151 -389.7890625 294.828125 C-389.0259375 293.8175 -388.2628125 292.806875 -387.4765625 291.765625 C-386.9196875 291.12625 -386.3628125 290.486875 -385.7890625 289.828125 C-385.1290625 289.828125 -384.4690625 289.828125 -383.7890625 289.828125 C-383.4590625 288.838125 -383.1290625 287.848125 -382.7890625 286.828125 C-382.1290625 286.828125 -381.4690625 286.828125 -380.7890625 286.828125 C-380.54540577 286.25928998 -380.30174904 285.69045496 -380.05070877 285.10438251 C-378.55485861 282.4055752 -376.79014776 280.58644114 -374.60272217 278.40800476 C-373.28637535 277.08970169 -373.28637535 277.08970169 -371.94343567 275.74476624 C-370.96856357 274.77856698 -369.99360017 273.81245983 -369.01855469 272.84643555 C-367.99308838 271.82317112 -366.96806997 270.79945767 -365.94346619 269.77532959 C-363.73702004 267.57181574 -361.52745502 265.37149497 -359.31542206 263.17358971 C-355.81363876 259.6940971 -352.31897939 256.20750802 -348.82525635 252.71992493 C-343.29365296 247.19970427 -337.75740014 241.68417372 -332.2191031 236.17066938 C-322.31421797 226.31005919 -312.41481003 216.44395831 -302.52071309 206.57252342 C-299.05106591 203.11125383 -295.57863006 199.65281402 -292.10388231 196.19666517 C-289.935465 194.03894639 -287.76912302 191.87915263 -285.60327339 189.71885681 C-284.60368269 188.72271539 -283.60322246 187.72744558 -282.6017971 186.73314857 C-277.43018517 181.59751815 -272.46001089 176.42322683 -267.7890625 170.828125 C-266.14211765 169.14196718 -264.47780129 167.47242329 -262.7890625 165.828125 C-262.0671875 165.065 -261.3453125 164.301875 -260.6015625 163.515625 C-258.7890625 161.828125 -258.7890625 161.828125 -256.7890625 161.828125 C-256.7890625 161.168125 -256.7890625 160.508125 -256.7890625 159.828125 C-252.48673692 155.06068314 -252.48673692 155.06068314 -248.7890625 153.828125 C-248.0981701 152.50718219 -247.43526117 151.17149744 -246.7890625 149.828125 C-245.54582835 148.41880181 -244.24536877 147.059074 -242.90942383 145.73730469 C-242.1113179 144.94257751 -241.31321198 144.14785034 -240.49092102 143.32904053 C-239.62637802 142.47795715 -238.76183502 141.62687378 -237.87109375 140.75 C-236.98048752 139.86459534 -236.08988129 138.97919067 -235.17228699 138.06695557 C-232.80287473 135.71234736 -230.42951965 133.36187645 -228.05371094 131.01373291 C-224.72629085 127.72421341 -221.40385091 124.42969768 -218.08439636 121.13214111 C-216.31971497 119.37959681 -214.55236759 117.62973149 -212.78193665 115.88299561 C-208.54842393 111.68345493 -204.50877292 107.41221362 -200.62339783 102.89077759 C-196.88937128 98.69198175 -192.85837404 94.77664764 -188.875 90.81640625 C-187.94233307 89.88515427 -187.00966614 88.95390228 -186.04873657 87.99443054 C-183.59027301 85.53974825 -181.12882398 83.08808194 -178.66668701 80.63708496 C-176.16659614 78.14725077 -173.66935115 75.65456583 -171.171875 73.16210938 C-166.73314523 68.7329855 -162.29164316 64.30665207 -157.84906006 59.88139343 C-156.16939132 58.20721145 -154.49124687 56.53155156 -152.81494141 54.85400391 C-151.45799516 53.49705766 -150.09512248 52.1460135 -148.7265625 50.80078125 C-145.72568451 47.84225436 -142.76966079 44.90630998 -140.1015625 41.640625 C-137.80091182 38.84253634 -135.3607409 36.37903493 -132.7890625 33.828125 C-131.71825794 32.73971795 -130.64936205 31.64943094 -129.58203125 30.55761719 C-126.35844566 27.26206453 -123.12207053 23.97938072 -119.88134766 20.70068359 C-118.49712507 19.29643258 -117.1165244 17.88860119 -115.73974609 16.47705078 C-84.35007943 -15.68171173 -38.87539546 -29.45507779 0 0 Z " fill="#FEC146" transform="translate(559.7890625,168.171875)"/>
<path d="" fill="#3D341A" transform="translate(0,0)"/>
<path d="" fill="#38321D" transform="translate(0,0)"/>
<path d="" fill="#302C1B" transform="translate(0,0)"/>
<path d="" fill="#37331F" transform="translate(0,0)"/>
<path d="" fill="#5D4B20" transform="translate(0,0)"/>
<path d="" fill="#38321B" transform="translate(0,0)"/>
<path d="" fill="#3E331A" transform="translate(0,0)"/>
<path d="" fill="#362F17" transform="translate(0,0)"/>
<path d="" fill="#F2BF49" transform="translate(0,0)"/>
<path d="" fill="#3B3119" transform="translate(0,0)"/>
<path d="" fill="#F6BF48" transform="translate(0,0)"/>
<path d="" fill="#F9C04A" transform="translate(0,0)"/>
<path d="" fill="#5B4A24" transform="translate(0,0)"/>
<path d="" fill="#443B1E" transform="translate(0,0)"/>
<path d="" fill="#F7C149" transform="translate(0,0)"/>
<path d="" fill="#44381B" transform="translate(0,0)"/>
<path d="" fill="#F8C44B" transform="translate(0,0)"/>
<path d="" fill="#635026" transform="translate(0,0)"/>
<path d="" fill="#342F1B" transform="translate(0,0)"/>
<path d="" fill="#4B401F" transform="translate(0,0)"/>
<path d="" fill="#342D1C" transform="translate(0,0)"/>
<path d="" fill="#5F4E24" transform="translate(0,0)"/>
</svg>
